<svg width="1421" height="944" viewBox="0 0 1421 944" fill="none" xmlns="http://www.w3.org/2000/svg">
<rect x="51.5" y="14.5" width="1319" height="885" stroke="#F5F5F5"/>
<rect x="446" width="531" height="27" fill="#111111"/>
<path d="M484.241 21V9.22298H485.928L491.254 17.5926H491.287V9.22298H493.073V21H491.386L486.06 12.6304H486.027V21H484.241ZM509.21 16.7821H512.651L510.947 11.6379H510.914L509.21 16.7821ZM514.073 21L513.164 18.37H508.698L507.788 21H505.902L510.186 9.22298H511.675L515.959 21H514.073ZM529.574 21V10.8109H526.349V9.22298H534.586V10.8109H531.361V21H529.574ZM547.422 21V9.22298H549.208V21H547.422ZM562.868 15.1115C562.868 12.283 563 11.9357 563.38 11.241C563.943 10.2154 565.216 9.12374 567.069 9.12374C568.922 9.12374 570.195 10.2154 570.758 11.241C571.138 11.9357 571.27 12.283 571.27 15.1115C571.27 17.94 571.138 18.2873 570.758 18.982C570.195 20.0076 568.922 21.0992 567.069 21.0992C565.216 21.0992 563.943 20.0076 563.38 18.982C563 18.2873 562.868 17.94 562.868 15.1115ZM564.654 15.1115C564.654 17.5264 564.786 17.8573 565.25 18.4527C565.613 18.9159 566.225 19.3128 567.069 19.3128C567.913 19.3128 568.525 18.9159 568.889 18.4527C569.352 17.8573 569.484 17.5264 569.484 15.1115C569.484 12.6965 569.352 12.3657 568.889 11.7703C568.525 11.3071 567.913 10.9101 567.069 10.9101C566.225 10.9101 565.613 11.3071 565.25 11.7703C564.786 12.3657 564.654 12.6965 564.654 15.1115ZM584.939 21V9.22298H586.626L591.952 17.5926H591.985V9.22298H593.772V21H592.084L586.758 12.6304H586.725V21H584.939ZM609.909 16.7821H613.349L611.645 11.6379H611.612L609.909 16.7821ZM614.772 21L613.862 18.37H609.396L608.486 21H606.601L610.885 9.22298H612.373L616.657 21H614.772ZM629.499 21V9.22298H631.285V19.3128H637.025V21H629.499ZM665.821 21V9.22298H667.607V19.3128H673.347V21H665.821ZM686.59 21V9.22298H694.116V10.9101H688.377V14.2679H693.273V15.8558H688.377V19.3128H694.116V21H686.59ZM710.023 21L706.136 9.22298H708.021L710.701 18.1881H710.734L713.414 9.22298H715.299L711.412 21H710.023ZM728.129 21V9.22298H735.656V10.9101H729.916V14.2679H734.812V15.8558H729.916V19.3128H735.656V21H728.129ZM748.899 21V9.22298H750.686V19.3128H756.425V21H748.899ZM787.222 21V10.8109H783.997V9.22298H792.234V10.8109H789.009V21H787.222ZM805.07 21V9.22298H812.596V10.9101H806.856V14.2679H811.752V15.8558H806.856V19.3128H812.596V21H805.07ZM831.893 17.7084H833.779C833.316 19.9083 831.662 21.0992 829.644 21.0992C827.791 21.0992 826.518 20.0076 825.955 18.982C825.575 18.2873 825.443 17.94 825.443 15.1115C825.443 12.283 825.575 11.9357 825.955 11.241C826.518 10.2154 827.791 9.12374 829.644 9.12374C831.877 9.12374 833.415 10.6951 833.779 12.6138H831.893C831.612 11.7041 830.769 10.9101 829.644 10.9101C828.8 10.9101 828.188 11.3071 827.824 11.7703C827.361 12.3657 827.229 12.6965 827.229 15.1115C827.229 17.5264 827.361 17.8573 827.824 18.4527C828.188 18.9159 828.8 19.3128 829.644 19.3128C830.636 19.3128 831.397 18.767 831.893 17.7084ZM853.06 21V15.8558H848.396V21H846.609V9.22298H848.396V14.2679H853.06V9.22298H854.846V21H853.06ZM868.913 21V9.22298H876.439V10.9101H870.7V14.3837H875.596V15.9716H870.7V21H868.913ZM889.376 21V9.22298H896.902V10.9101H891.162V14.2679H896.058V15.8558H891.162V19.3128H896.902V21H889.376ZM909.12 19.4783L910.295 18.1384C911.188 18.8497 912.379 19.3128 913.636 19.3128C915.091 19.3128 915.968 18.6512 915.968 17.6753C915.968 16.8483 915.488 16.2197 914.43 16.0874C913.9 16.0212 913.487 15.9551 912.875 15.8724C910.84 15.5912 909.749 14.2679 909.749 12.5642C909.749 10.5462 911.155 9.12374 913.586 9.12374C915.042 9.12374 916.332 9.6365 917.407 10.3478L916.415 11.8199C915.554 11.274 914.545 10.9101 913.503 10.9101C912.412 10.9101 911.535 11.4725 911.535 12.5973C911.535 13.2589 912.015 13.9206 913.206 14.1025C913.52 14.1521 913.967 14.2183 914.529 14.2845C916.729 14.5491 917.754 16.0709 917.754 17.6753C917.754 19.8421 916.15 21.0992 913.619 21.0992C911.882 21.0992 910.361 20.5699 909.12 19.4783ZM933.224 21V10.8109H929.998V9.22298H938.235V10.8109H935.01V21H933.224Z" fill="#F5F5F5"/>
<rect y="843" width="101" height="101" fill="#111111"/>
<rect x="1320" y="843" width="101" height="101" fill="#111111"/>
<g filter="url(#filter0_d_457_246)">
<path fill-rule="evenodd" clip-rule="evenodd" d="M1365.94 894.322C1364.47 892.202 1365.81 890.598 1367.42 888.679C1369.73 885.923 1372.58 882.517 1368.42 876C1369.32 879.095 1369.11 882.125 1365.93 885.636C1365.7 885.905 1365.44 886.186 1365.17 886.48C1363.53 888.273 1361.4 890.59 1362.09 894.244C1363.12 900.65 1373.13 903.463 1377.54 894.933C1377.42 897.148 1375.89 901.708 1370.75 902.28C1367.72 902.787 1362.9 900.954 1361.35 897.313C1360.85 896.376 1360.47 894.83 1360.49 892.215C1358.95 895.141 1358.76 898.678 1361.01 901.812L1355 910.459C1366.13 908.916 1373.46 908.834 1386 910.485L1379.2 900.655C1380.64 898.574 1382.56 894.244 1377.22 888.73C1376.55 888.095 1376.03 887.676 1375.61 887.332C1374.55 886.467 1374.08 886.083 1373.15 883.932C1372.9 885.659 1372.92 886.584 1373.52 888.08C1373.88 888.769 1374.3 889.294 1374.67 889.763C1375.62 890.948 1376.27 891.772 1374.86 893.971L1370.52 887.742L1365.94 894.322ZM1363.08 903.801L1360.75 907.104C1368.43 906.445 1372.7 906.491 1380.25 907.091L1377.26 902.787C1373.03 906.194 1366.79 906.376 1363.08 903.801ZM1372.77 895.869L1370.52 892.644L1368.07 896.142C1369.39 896.819 1371.34 896.754 1372.77 895.869Z" fill="#F5F5F5"/>
</g>
<g filter="url(#filter1_d_457_246)">
<path fill-rule="evenodd" clip-rule="evenodd" d="M49.9402 884.322C48.4662 882.202 49.8105 880.598 51.4192 878.679C53.7288 875.923 56.5835 872.517 52.4249 866C53.3225 869.095 53.1143 872.125 49.9272 875.636C49.6976 875.905 49.4405 876.186 49.1703 876.48C47.5265 878.273 45.4014 880.59 46.0896 884.244C47.1217 890.65 57.1341 893.463 61.5441 884.933C61.4226 887.148 59.8945 891.708 54.7535 892.28C51.7224 892.787 46.8961 890.954 45.3481 887.313C44.854 886.376 44.4718 884.83 44.4895 882.215C42.9547 885.141 42.7595 888.678 45.0101 891.812L39 900.459C50.135 898.916 57.4595 898.834 70 900.485L63.1964 890.655C64.6404 888.574 66.5628 884.244 61.2191 878.73C60.5465 878.095 60.0324 877.676 59.6113 877.332C58.5499 876.467 58.0786 876.083 57.1473 873.932C56.8978 875.659 56.9167 876.584 57.5245 878.08C57.8785 878.769 58.2971 879.294 58.6708 879.763C59.6155 880.948 60.2721 881.772 58.8645 883.971L54.5195 877.742L49.9402 884.322ZM47.0785 893.801L44.7499 897.104C52.4331 896.445 56.6978 896.491 64.2501 897.091L61.2581 892.787C57.0302 896.194 50.786 896.376 47.0785 893.801ZM56.77 885.869L54.5195 882.644L52.0739 886.142C53.3877 886.819 55.3391 886.754 56.77 885.869Z" fill="#F5F5F5"/>
</g>
<defs>
<filter id="filter0_d_457_246" x="1354.76" y="876" width="31.4735" height="34.9588" filterUnits="userSpaceOnUse" color-interpolation-filters="sRGB">
<feFlood flood-opacity="0" result="BackgroundImageFix"/>
<feColorMatrix in="SourceAlpha" type="matrix" values="0 0 0 0 0 0 0 0 0 0 0 0 0 0 0 0 0 0 127 0" result="hardAlpha"/>
<feOffset dy="0.236731"/>
<feGaussianBlur stdDeviation="0.118365"/>
<feComposite in2="hardAlpha" operator="out"/>
<feColorMatrix type="matrix" values="0 0 0 0 0 0 0 0 0 0 0 0 0 0 0 0 0 0 0.25 0"/>
<feBlend mode="normal" in2="BackgroundImageFix" result="effect1_dropShadow_457_246"/>
<feBlend mode="normal" in="SourceGraphic" in2="effect1_dropShadow_457_246" result="shape"/>
</filter>
<filter id="filter1_d_457_246" x="38.7633" y="866" width="31.4735" height="34.9588" filterUnits="userSpaceOnUse" color-interpolation-filters="sRGB">
<feFlood flood-opacity="0" result="BackgroundImageFix"/>
<feColorMatrix in="SourceAlpha" type="matrix" values="0 0 0 0 0 0 0 0 0 0 0 0 0 0 0 0 0 0 127 0" result="hardAlpha"/>
<feOffset dy="0.236731"/>
<feGaussianBlur stdDeviation="0.118365"/>
<feComposite in2="hardAlpha" operator="out"/>
<feColorMatrix type="matrix" values="0 0 0 0 0 0 0 0 0 0 0 0 0 0 0 0 0 0 0.25 0"/>
<feBlend mode="normal" in2="BackgroundImageFix" result="effect1_dropShadow_457_246"/>
<feBlend mode="normal" in="SourceGraphic" in2="effect1_dropShadow_457_246" result="shape"/>
</filter>
</defs>
</svg>
