<svg width="18" height="18" viewBox="0 0 18 18" fill="none" xmlns="http://www.w3.org/2000/svg">
<path d="M5.803 5.41C5.803 5.37333 5.814 5.344 5.836 5.322C5.86533 5.29267 5.89833 5.278 5.935 5.278H11.743C11.7797 5.278 11.809 5.29267 11.831 5.322C11.8603 5.344 11.875 5.37333 11.875 5.41V7.027C11.875 7.12967 11.842 7.22133 11.776 7.302L10.038 9.579L12.524 12.824C12.546 12.8607 12.546 12.8973 12.524 12.934C12.5093 12.9633 12.4837 12.978 12.447 12.978H11.05C10.9033 12.978 10.7823 12.9193 10.687 12.802L8.278 9.667C8.22667 9.60833 8.22667 9.55333 8.278 9.502L10.445 6.675H7.211V12.846C7.211 12.934 7.16333 12.978 7.068 12.978H5.935C5.89833 12.978 5.86533 12.967 5.836 12.945C5.814 12.9157 5.803 12.8827 5.803 12.846V5.41Z" fill="white"/>
<circle cx="9" cy="9" r="8.5" stroke="#505553"/>
</svg>
