<svg width="409" height="455" viewBox="0 0 409 455" fill="none" xmlns="http://www.w3.org/2000/svg">
<path fill-rule="evenodd" clip-rule="evenodd" d="M144.309 241.68C124.866 213.718 142.598 192.562 163.818 167.243C194.284 130.893 231.939 85.9642 177.084 0.00146484C188.924 40.8245 186.178 80.7898 144.137 127.102C141.109 130.661 137.717 134.359 134.153 138.245C112.471 161.886 84.4385 192.45 93.5167 240.651C107.131 325.151 239.201 362.263 297.372 249.742C295.771 278.959 275.614 339.107 207.799 346.654C167.818 353.343 104.156 329.158 83.7358 281.131C77.2189 268.781 72.1765 248.383 72.4105 213.893C52.165 252.487 49.5911 299.141 79.278 340.479L0 454.543C146.878 434.189 243.494 433.103 408.912 454.886L319.168 325.213C338.215 297.769 363.574 240.651 293.085 167.925C284.213 159.544 277.433 154.014 271.877 149.484C257.877 138.068 251.661 132.998 239.376 104.632C236.085 127.41 236.334 139.617 244.352 159.348C249.02 168.438 254.543 175.365 259.471 181.547C271.934 197.178 280.594 208.041 262.026 237.049L204.714 154.889L144.309 241.68ZM106.561 366.722L75.8452 410.29C177.192 401.598 233.446 402.199 333.067 410.118L293.6 353.343C237.831 398.283 155.466 400.684 106.561 366.722ZM234.4 262.092L204.714 219.554L172.454 265.694C189.785 274.613 215.524 273.756 234.4 262.092Z" fill="white"/>
<mask id="mask0_392_236" style="mask-type:alpha" maskUnits="userSpaceOnUse" x="0" y="0" width="409" height="455">
<path fill-rule="evenodd" clip-rule="evenodd" d="M144.309 241.679C124.866 213.717 142.598 192.56 163.818 167.242C194.284 130.891 231.939 85.9628 177.084 0C188.924 40.823 186.178 80.7884 144.137 127.1C141.109 130.659 137.717 134.358 134.153 138.244C112.471 161.885 84.4385 192.449 93.5167 240.65C107.131 325.149 239.201 362.261 297.372 249.741C295.771 278.957 275.614 339.105 207.799 346.652C167.818 353.342 104.156 329.157 83.7358 281.13C77.2189 268.78 72.1765 248.382 72.4105 213.892C52.165 252.485 49.5911 299.14 79.278 340.477L0 454.542C146.878 434.188 243.494 433.101 408.912 454.885L319.168 325.212C338.215 297.768 363.574 240.65 293.085 167.923C284.213 159.542 277.433 154.013 271.877 149.483C257.877 138.066 251.661 132.997 239.376 104.63C236.085 127.408 236.334 139.615 244.352 159.347C249.02 168.437 254.543 175.364 259.471 181.545C271.934 197.176 280.594 208.039 262.026 237.048L204.714 154.887L144.309 241.679ZM106.561 366.721L75.8452 410.288C177.192 401.597 233.446 402.198 333.067 410.117L293.6 353.342C237.831 398.281 155.466 400.683 106.561 366.721ZM234.4 262.09L204.714 219.552L172.454 265.693C189.785 274.612 215.524 273.754 234.4 262.09Z" fill="black"/>
</mask>
<g mask="url(#mask0_392_236)">
<g filter="url(#filter0_f_392_236)">
<path d="M365.182 59.6452C365.182 127.283 310.351 182.114 242.713 182.114C175.075 182.114 120.244 127.283 120.244 59.6452C120.244 -7.9925 175.075 -62.8237 242.713 -62.8237C310.351 -62.8237 365.182 -7.9925 365.182 59.6452Z" fill="white"/>
</g>
</g>
<defs>
<filter id="filter0_f_392_236" x="114.2" y="-68.8677" width="257.025" height="257.026" filterUnits="userSpaceOnUse" color-interpolation-filters="sRGB">
<feFlood flood-opacity="0" result="BackgroundImageFix"/>
<feBlend mode="normal" in="SourceGraphic" in2="BackgroundImageFix" result="shape"/>
<feGaussianBlur stdDeviation="3.02196" result="effect1_foregroundBlur_392_236"/>
</filter>
</defs>
</svg>
