<svg width="921" height="1024" viewBox="0 0 921 1024" fill="none" xmlns="http://www.w3.org/2000/svg">
<path fill-rule="evenodd" clip-rule="evenodd" d="M324.857 544.048C281.089 481.103 321.005 433.476 368.773 376.482C437.356 294.652 522.124 193.513 398.637 0C425.29 91.8974 419.109 181.864 324.47 286.118C317.654 294.13 310.018 302.456 301.996 311.203C253.185 364.422 190.081 433.226 210.517 541.732C241.164 731.95 538.471 815.493 669.421 562.196C665.815 627.966 620.44 763.367 467.781 780.356C377.778 795.415 234.467 740.971 188.499 632.857C173.829 605.056 162.478 559.137 163.005 481.496C117.43 568.374 111.636 673.4 178.464 766.456L0 1023.23C330.64 977.409 548.134 974.962 920.51 1024L718.485 732.091C761.362 670.311 818.448 541.732 659.77 378.015C639.799 359.149 624.534 346.701 612.029 336.503C580.512 310.803 566.519 299.392 538.864 235.535C531.456 286.812 532.016 314.291 550.066 358.709C560.575 379.171 573.007 394.765 584.101 408.68C612.155 443.867 631.652 468.322 589.853 533.623L460.835 348.67L324.857 544.048ZM239.881 825.532L170.737 923.608C398.88 904.042 525.516 905.396 749.774 923.222L660.929 795.415C535.387 896.579 349.972 901.985 239.881 825.532ZM527.661 589.997L460.835 494.238L388.214 598.106C427.228 618.184 485.17 616.253 527.661 589.997Z" fill="white" fill-opacity="0.02"/>
<mask id="mask0_516_394" style="mask-type:alpha" maskUnits="userSpaceOnUse" x="0" y="0" width="921" height="1024">
<path fill-rule="evenodd" clip-rule="evenodd" d="M324.857 544.048C281.089 481.103 321.005 433.476 368.773 376.482C437.356 294.652 522.124 193.513 398.637 0C425.29 91.8974 419.109 181.864 324.47 286.118C317.654 294.13 310.018 302.456 301.996 311.203C253.185 364.422 190.081 433.226 210.517 541.732C241.164 731.95 538.471 815.493 669.421 562.196C665.815 627.966 620.44 763.367 467.781 780.356C377.778 795.415 234.467 740.971 188.499 632.857C173.829 605.056 162.478 559.137 163.005 481.496C117.43 568.374 111.636 673.4 178.464 766.456L0 1023.23C330.64 977.409 548.134 974.962 920.51 1024L718.485 732.091C761.362 670.311 818.448 541.732 659.77 378.015C639.799 359.149 624.534 346.701 612.029 336.503C580.512 310.803 566.519 299.392 538.864 235.535C531.456 286.812 532.016 314.291 550.066 358.709C560.575 379.171 573.007 394.765 584.101 408.68C612.155 443.867 631.652 468.322 589.853 533.623L460.835 348.67L324.857 544.048ZM239.881 825.532L170.737 923.608C398.88 904.042 525.516 905.396 749.774 923.222L660.929 795.415C535.387 896.579 349.972 901.985 239.881 825.532ZM527.661 589.997L460.835 494.238L388.214 598.106C427.228 618.184 485.17 616.253 527.661 589.997Z" fill="#2A2A2A"/>
</mask>
<g mask="url(#mask0_516_394)">
<g filter="url(#filter0_f_516_394)">
<ellipse cx="492.758" cy="187.408" rx="252.53" ry="252.53" fill="url(#paint0_radial_516_394)"/>
</g>
</g>
<defs>
<filter id="filter0_f_516_394" x="60.478" y="-244.873" width="864.561" height="864.561" filterUnits="userSpaceOnUse" color-interpolation-filters="sRGB">
<feFlood flood-opacity="0" result="BackgroundImageFix"/>
<feBlend mode="normal" in="SourceGraphic" in2="BackgroundImageFix" result="shape"/>
<feGaussianBlur stdDeviation="89.8753" result="effect1_foregroundBlur_516_394"/>
</filter>
<radialGradient id="paint0_radial_516_394" cx="0" cy="0" r="1" gradientUnits="userSpaceOnUse" gradientTransform="translate(463.602 1.67377) rotate(87.3884) scale(392.449 216.914)">
<stop stop-color="#3EE8EB"/>
<stop offset="1" stop-color="#202020"/>
</radialGradient>
</defs>
</svg>
