<svg width="921" height="987" viewBox="0 0 921 987" fill="none" xmlns="http://www.w3.org/2000/svg">
<path fill-rule="evenodd" clip-rule="evenodd" d="M324.857 507.048C281.089 444.103 321.005 396.476 368.773 339.482C437.356 257.652 522.124 156.513 398.637 -37C425.29 54.8974 419.109 144.864 324.47 249.118C317.654 257.13 310.018 265.456 301.996 274.203C253.185 327.422 190.081 396.226 210.517 504.732C241.164 694.95 538.471 778.493 669.421 525.196C665.815 590.966 620.44 726.367 467.781 743.356C377.778 758.415 234.467 703.971 188.499 595.857C173.829 568.056 162.478 522.137 163.005 444.496C117.43 531.374 111.636 636.4 178.464 729.456L0 986.228C330.64 940.409 548.134 937.962 920.51 987L718.485 695.091C761.362 633.311 818.448 504.732 659.77 341.015C639.799 322.149 624.534 309.701 612.029 299.503C580.512 273.803 566.519 262.392 538.864 198.535C531.456 249.812 532.016 277.291 550.066 321.709C560.575 342.171 573.007 357.765 584.101 371.68C612.155 406.867 631.652 431.322 589.853 496.623L460.835 311.67L324.857 507.048ZM239.881 788.532L170.737 886.608C398.88 867.042 525.516 868.396 749.774 886.222L660.929 758.415C535.387 859.579 349.972 864.985 239.881 788.532ZM527.661 552.997L460.835 457.238L388.214 561.106C427.228 581.184 485.17 579.253 527.661 552.997Z" fill="white" fill-opacity="0.02"/>
<mask id="mask0_198_24" style="mask-type:alpha" maskUnits="userSpaceOnUse" x="0" y="-37" width="921" height="1024">
<path fill-rule="evenodd" clip-rule="evenodd" d="M324.857 507.048C281.089 444.103 321.005 396.476 368.773 339.482C437.356 257.652 522.124 156.513 398.637 -37C425.29 54.8974 419.109 144.864 324.47 249.118C317.654 257.13 310.018 265.456 301.996 274.203C253.185 327.422 190.081 396.226 210.517 504.732C241.164 694.95 538.471 778.493 669.421 525.196C665.815 590.966 620.44 726.367 467.781 743.356C377.778 758.415 234.467 703.971 188.499 595.857C173.829 568.056 162.478 522.137 163.005 444.496C117.43 531.374 111.636 636.4 178.464 729.456L0 986.228C330.64 940.409 548.134 937.962 920.51 987L718.485 695.091C761.362 633.311 818.448 504.732 659.77 341.015C639.799 322.149 624.534 309.701 612.029 299.503C580.512 273.803 566.519 262.392 538.864 198.535C531.456 249.812 532.016 277.291 550.066 321.709C560.575 342.171 573.007 357.765 584.101 371.68C612.155 406.867 631.652 431.322 589.853 496.623L460.835 311.67L324.857 507.048ZM239.881 788.532L170.737 886.608C398.88 867.042 525.516 868.396 749.774 886.222L660.929 758.415C535.387 859.579 349.972 864.985 239.881 788.532ZM527.661 552.997L460.835 457.238L388.214 561.106C427.228 581.184 485.17 579.253 527.661 552.997Z" fill="#2A2A2A"/>
</mask>
<g mask="url(#mask0_198_24)">
<g filter="url(#filter0_f_198_24)">
<ellipse cx="492.758" cy="150.408" rx="252.53" ry="252.53" fill="url(#paint0_radial_198_24)"/>
</g>
</g>
<defs>
<filter id="filter0_f_198_24" x="60.4779" y="-281.873" width="864.561" height="864.561" filterUnits="userSpaceOnUse" color-interpolation-filters="sRGB">
<feFlood flood-opacity="0" result="BackgroundImageFix"/>
<feBlend mode="normal" in="SourceGraphic" in2="BackgroundImageFix" result="shape"/>
<feGaussianBlur stdDeviation="89.8753" result="effect1_foregroundBlur_198_24"/>
</filter>
<radialGradient id="paint0_radial_198_24" cx="0" cy="0" r="1" gradientUnits="userSpaceOnUse" gradientTransform="translate(463.602 -35.3262) rotate(87.3884) scale(392.449 216.914)">
<stop stop-color="#3EE8EB"/>
<stop offset="1" stop-color="#202020"/>
</radialGradient>
</defs>
</svg>
