<svg width="412" height="832" viewBox="0 0 412 832" fill="none" xmlns="http://www.w3.org/2000/svg">
<path fill-rule="evenodd" clip-rule="evenodd" d="M94.0218 450.54C57.7764 398.413 90.8326 358.972 130.391 311.774C187.186 244.009 257.384 160.253 155.121 0C177.193 76.1026 172.075 150.606 93.7018 236.941C88.0575 243.576 81.7336 250.471 75.0901 257.715C34.6688 301.787 -17.5891 358.765 -0.665421 448.621C24.7139 606.146 270.921 675.33 379.364 465.569C376.378 520.034 338.802 632.163 212.381 646.232C137.847 658.703 19.1678 613.617 -18.8991 524.084C-31.0479 501.062 -40.448 463.036 -40.0118 398.739C-77.7536 470.685 -82.5518 557.659 -27.2092 634.721L-175 847.361C98.8115 809.417 278.924 807.391 587.298 848L419.995 606.262C455.503 555.101 502.777 448.621 371.372 313.044C354.833 297.42 342.192 287.112 331.836 278.667C305.737 257.384 294.148 247.934 271.246 195.053C265.112 237.516 265.575 260.272 280.523 297.056C289.226 314.001 299.522 326.915 308.709 338.438C331.941 367.578 348.087 387.829 313.472 441.906L206.629 288.742L94.0218 450.54ZM23.6516 683.644L-33.6086 764.863C155.322 748.66 260.193 749.781 445.906 764.543L372.332 658.703C268.367 742.48 114.82 746.956 23.6516 683.644ZM261.97 488.591L206.629 409.291L146.489 495.306C178.798 511.934 226.782 510.335 261.97 488.591Z" fill="white" fill-opacity="0.02"/>
<mask id="mask0_93_798" style="mask-type:alpha" maskUnits="userSpaceOnUse" x="-175" y="0" width="763" height="848">
<path fill-rule="evenodd" clip-rule="evenodd" d="M94.0218 450.54C57.7764 398.413 90.8326 358.972 130.391 311.774C187.186 244.009 257.384 160.253 155.121 0C177.193 76.1026 172.075 150.606 93.7018 236.941C88.0575 243.576 81.7336 250.471 75.0901 257.715C34.6688 301.787 -17.5891 358.765 -0.665421 448.621C24.7139 606.146 270.921 675.33 379.364 465.569C376.378 520.034 338.802 632.163 212.381 646.232C137.847 658.703 19.1678 613.617 -18.8991 524.084C-31.0479 501.062 -40.448 463.036 -40.0118 398.739C-77.7536 470.685 -82.5518 557.659 -27.2092 634.721L-175 847.361C98.8115 809.417 278.924 807.391 587.298 848L419.995 606.262C455.503 555.101 502.777 448.621 371.372 313.044C354.833 297.42 342.192 287.112 331.836 278.667C305.737 257.384 294.148 247.934 271.246 195.053C265.112 237.516 265.575 260.272 280.523 297.056C289.226 314.001 299.522 326.915 308.709 338.438C331.941 367.578 348.087 387.829 313.472 441.906L206.629 288.742L94.0218 450.54ZM23.6516 683.644L-33.6086 764.863C155.322 748.66 260.193 749.781 445.906 764.543L372.332 658.703C268.367 742.48 114.82 746.956 23.6516 683.644ZM261.97 488.591L206.629 409.291L146.489 495.306C178.798 511.934 226.782 510.335 261.97 488.591Z" fill="#2A2A2A"/>
</mask>
<g mask="url(#mask0_93_798)">
<g filter="url(#filter0_f_93_798)">
<ellipse cx="233.066" cy="155.197" rx="209.126" ry="209.126" fill="url(#paint0_radial_93_798)"/>
</g>
</g>
<defs>
<filter id="filter0_f_93_798" x="-155.811" y="-233.68" width="777.753" height="777.754" filterUnits="userSpaceOnUse" color-interpolation-filters="sRGB">
<feFlood flood-opacity="0" result="BackgroundImageFix"/>
<feBlend mode="normal" in="SourceGraphic" in2="BackgroundImageFix" result="shape"/>
<feGaussianBlur stdDeviation="89.8753" result="effect1_foregroundBlur_93_798"/>
</filter>
<radialGradient id="paint0_radial_93_798" cx="0" cy="0" r="1" gradientUnits="userSpaceOnUse" gradientTransform="translate(208.921 1.38611) rotate(87.3884) scale(324.997 179.632)">
<stop stop-color="#F6954E"/>
<stop offset="1" stop-color="#202020"/>
</radialGradient>
</defs>
</svg>
